<?xml version="1.0" encoding="utf-8"?>
<!-- Generator: Adobe Illustrator 16.0.0, SVG Export Plug-In . SVG Version: 6.00 Build 0)  -->
<!DOCTYPE svg PUBLIC "-//W3C//DTD SVG 1.1//EN" "http://www.w3.org/Graphics/SVG/1.1/DTD/svg11.dtd">
<svg version="1.1" id="Layer_1" xmlns="http://www.w3.org/2000/svg" xmlns:xlink="http://www.w3.org/1999/xlink" x="0px" y="0px"
	 width="20px" height="20px" viewBox="0 0 20 20" enable-background="new 0 0 20 20" xml:space="preserve">
<title>Icons/Social Media/Facebook2</title>
<desc>Created with Sketch.</desc>
<path id="path-1_1_" fill="#FFFFFF" d="M10,0C7.283,0,6.944,0.013,5.877,0.06C4.812,0.11,4.087,0.277,3.45,0.525
	C2.792,0.78,2.234,1.123,1.678,1.678C1.123,2.234,0.779,2.792,0.525,3.45C0.277,4.087,0.109,4.812,0.06,5.877
	C0.01,6.944,0,7.283,0,10s0.013,3.056,0.06,4.123c0.05,1.063,0.217,1.789,0.465,2.427c0.255,0.657,0.598,1.216,1.153,1.772
	c0.556,0.555,1.113,0.898,1.772,1.152c0.638,0.247,1.363,0.416,2.427,0.465C6.944,19.99,7.283,20,10,20s3.056-0.013,4.123-0.061
	c1.063-0.049,1.789-0.218,2.427-0.465c0.657-0.255,1.216-0.598,1.772-1.152c0.555-0.557,0.898-1.113,1.152-1.772
	c0.247-0.638,0.416-1.363,0.465-2.427C19.99,13.056,20,12.717,20,10s-0.013-3.056-0.061-4.123c-0.049-1.064-0.218-1.791-0.465-2.427
	c-0.254-0.658-0.598-1.216-1.152-1.772c-0.557-0.556-1.113-0.899-1.772-1.153c-0.638-0.248-1.363-0.416-2.427-0.465
	C13.056,0.01,12.717,0,10,0z M10,1.8c2.669,0,2.987,0.014,4.041,0.06c0.976,0.046,1.505,0.207,1.856,0.346
	c0.468,0.181,0.8,0.397,1.151,0.747c0.35,0.35,0.566,0.683,0.747,1.151c0.137,0.352,0.3,0.881,0.345,1.856
	C18.188,7.013,18.198,7.33,18.198,10s-0.013,2.987-0.062,4.041c-0.051,0.976-0.213,1.505-0.352,1.856
	c-0.186,0.468-0.398,0.8-0.748,1.151c-0.35,0.35-0.688,0.566-1.15,0.747c-0.35,0.137-0.888,0.3-1.863,0.345
	c-1.061,0.047-1.373,0.058-4.048,0.058c-2.676,0-2.988-0.013-4.049-0.062c-0.976-0.051-1.513-0.213-1.863-0.352
	c-0.474-0.186-0.8-0.398-1.149-0.748c-0.351-0.35-0.575-0.688-0.75-1.15c-0.138-0.35-0.299-0.888-0.35-1.862
	c-0.038-1.05-0.051-1.374-0.051-4.037s0.013-2.988,0.051-4.051c0.051-0.975,0.212-1.512,0.35-1.861
	c0.175-0.475,0.399-0.8,0.75-1.151C3.263,2.575,3.588,2.35,4.062,2.176c0.35-0.138,0.876-0.301,1.851-0.351
	c1.062-0.038,1.375-0.05,4.049-0.05L10,1.8z M10,4.865c-2.837,0-5.135,2.3-5.135,5.135c0,2.838,2.3,5.135,5.135,5.135
	c2.838,0,5.135-2.3,5.135-5.135C15.135,7.163,12.835,4.865,10,4.865z M10,13.334c-1.842,0-3.333-1.492-3.333-3.334
	S8.158,6.667,10,6.667S13.334,8.158,13.334,10S11.842,13.334,10,13.334z M16.539,4.663c0,0.663-0.539,1.2-1.201,1.2
	s-1.199-0.538-1.199-1.2s0.538-1.199,1.199-1.199C15.999,3.462,16.539,4.001,16.539,4.663z"/>
</svg>
